<svg id="visual" viewBox="0 0 900 100" width="900" height="100" xmlns="http://www.w3.org/2000/svg" xmlns:xlink="http://www.w3.org/1999/xlink" version="1.1"><rect x="0" y="0" width="900" height="100" fill="#1A1717"></rect><path d="M0 58L8.3 60.7C16.7 63.3 33.3 68.7 50 73.7C66.7 78.7 83.3 83.3 100 85.7C116.7 88 133.3 88 150 82.7C166.7 77.3 183.3 66.7 200 66.5C216.7 66.3 233.3 76.7 250 79.8C266.7 83 283.3 79 300 77C316.7 75 333.3 75 350 71.8C366.7 68.7 383.3 62.3 400 59.2C416.7 56 433.3 56 450 58.7C466.7 61.3 483.3 66.7 500 69.7C516.7 72.7 533.3 73.3 550 75.8C566.7 78.3 583.3 82.7 600 85.3C616.7 88 633.3 89 650 89.2C666.7 89.3 683.3 88.7 700 84.2C716.7 79.7 733.3 71.3 750 70.3C766.7 69.3 783.3 75.7 800 78.7C816.7 81.7 833.3 81.3 850 76.2C866.7 71 883.3 61 891.7 56L900 51L900 101L891.7 101C883.3 101 866.7 101 850 101C833.3 101 816.7 101 800 101C783.3 101 766.7 101 750 101C733.3 101 716.7 101 700 101C683.3 101 666.7 101 650 101C633.3 101 616.7 101 600 101C583.3 101 566.7 101 550 101C533.3 101 516.7 101 500 101C483.3 101 466.7 101 450 101C433.3 101 416.7 101 400 101C383.3 101 366.7 101 350 101C333.3 101 316.7 101 300 101C283.3 101 266.7 101 250 101C233.3 101 216.7 101 200 101C183.3 101 166.7 101 150 101C133.3 101 116.7 101 100 101C83.3 101 66.7 101 50 101C33.3 101 16.7 101 8.3 101L0 101Z" fill="#000000" stroke-linecap="round" stroke-linejoin="miter"></path></svg>