<svg id="visual" viewBox="0 0 900 100" width="900" height="100" xmlns="http://www.w3.org/2000/svg" xmlns:xlink="http://www.w3.org/1999/xlink" version="1.1"><rect x="0" y="0" width="900" height="100" fill="#000"></rect><path d="M0 40L12.5 39.7C25 39.3 50 38.7 75 42.2C100 45.7 125 53.3 150 53.3C175 53.3 200 45.7 225 43.2C250 40.7 275 43.3 300 46C325 48.7 350 51.3 375 52.3C400 53.3 425 52.7 450 54.8C475 57 500 62 525 61C550 60 575 53 600 48.3C625 43.7 650 41.3 675 44.2C700 47 725 55 750 59.7C775 64.3 800 65.7 825 67C850 68.3 875 69.7 887.5 70.3L900 71L900 101L887.5 101C875 101 850 101 825 101C800 101 775 101 750 101C725 101 700 101 675 101C650 101 625 101 600 101C575 101 550 101 525 101C500 101 475 101 450 101C425 101 400 101 375 101C350 101 325 101 300 101C275 101 250 101 225 101C200 101 175 101 150 101C125 101 100 101 75 101C50 101 25 101 12.5 101L0 101Z" fill="#1a1717" stroke-linecap="round" stroke-linejoin="miter"></path></svg>