<svg id="visual" viewBox="0 0 900 450" width="900" height="450" xmlns="http://www.w3.org/2000/svg" xmlns:xlink="http://www.w3.org/1999/xlink" version="1.1"><rect x="0" y="0" width="900" height="450" fill="#000"></rect><path d="M0 183L12.5 181.7C25 180.3 50 177.7 75 193.2C100 208.7 125 242.3 150 242.2C175 242 200 208 225 197.2C250 186.3 275 198.7 300 211C325 223.3 350 235.7 375 239.8C400 244 425 240 450 249.7C475 259.3 500 282.7 525 278.5C550 274.3 575 242.7 600 221.8C625 201 650 191 675 203.7C700 216.3 725 251.7 750 272.3C775 293 800 299 825 305.2C850 311.3 875 317.7 887.5 320.8L900 324L900 451L887.5 451C875 451 850 451 825 451C800 451 775 451 750 451C725 451 700 451 675 451C650 451 625 451 600 451C575 451 550 451 525 451C500 451 475 451 450 451C425 451 400 451 375 451C350 451 325 451 300 451C275 451 250 451 225 451C200 451 175 451 150 451C125 451 100 451 75 451C50 451 25 451 12.5 451L0 451Z" fill="#1a1717" stroke-linecap="round" stroke-linejoin="miter"></path></svg>